<svg width="18" height="18" viewBox="0 0 18 18" fill="none" xmlns="http://www.w3.org/2000/svg">
<path d="M15.7052 0H2.22311C1.00398 0 0 0.833058 0 1.84463V16.1256C0 17.1372 1.00398 18 2.25896 18H15.741C16.9602 18 18 17.1669 18 16.1256V1.84463C17.9283 0.833058 16.9243 0 15.7052 0ZM16.3147 16.1256C16.3147 16.4231 16.0279 16.6612 15.6693 16.6612H2.22311C1.86454 16.6612 1.57769 16.4231 1.57769 16.1256V1.84463C1.57769 1.54711 1.86454 1.30909 2.22311 1.30909H15.7052C16.0637 1.30909 16.3506 1.54711 16.3506 1.84463V16.1256H16.3147Z" fill="#D86B06"/>
<path d="M13.8045 2.23145H9.89616C9.25074 2.23145 8.71289 2.67773 8.71289 3.21326V7.14054C8.71289 7.67607 9.25074 8.12235 9.89616 8.12235H13.8045C14.4499 8.12235 14.9878 7.67607 14.9878 7.14054V3.18351C14.9519 2.67773 14.4499 2.23145 13.8045 2.23145ZM13.3384 6.75376H10.3264V3.57029H13.3384V6.75376Z" fill="#D86B06"/>
<path d="M3.83663 4.0759H6.45416C6.88444 4.0759 7.27886 3.77838 7.27886 3.39161C7.27886 3.00483 6.9203 2.73706 6.45416 2.73706H3.80078C3.3705 2.73706 2.97607 3.03458 2.97607 3.42136C2.97607 3.80814 3.3705 4.0759 3.83663 4.0759Z" fill="#D86B06"/>
<path d="M3.83663 7.85468H6.45416C6.88444 7.85468 7.27886 7.55716 7.27886 7.17038C7.27886 6.7836 6.9203 6.48608 6.45416 6.48608H3.80078C3.3705 6.48608 2.97607 6.7836 2.97607 7.17038C2.97607 7.55716 3.3705 7.85468 3.83663 7.85468Z" fill="#D86B06"/>
<path d="M14.1631 10.2944H3.83642C3.40614 10.2944 3.01172 10.592 3.01172 10.9787C3.01172 11.3655 3.37028 11.663 3.83642 11.663H14.1631C14.5934 11.663 14.9878 11.3655 14.9878 10.9787C14.9878 10.592 14.5934 10.2944 14.1631 10.2944Z" fill="#D86B06"/>
<path d="M14.1631 14.0728H3.83642C3.40614 14.0728 3.01172 14.3703 3.01172 14.7571C3.01172 15.1438 3.37028 15.4413 3.83642 15.4413H14.1631C14.5934 15.4413 14.9878 15.1438 14.9878 14.7571C14.9878 14.3703 14.5934 14.0728 14.1631 14.0728Z" fill="#D86B06"/>
</svg>
